# xmcd CD database file
#
# Track frame offsets:
#	150
#	14773
#	28503
#
# Disc length: 574 seconds
#
# Revision: 0
# Processed by: cddbd v1.4PL0 Copyright (c) Steve Scherf et al.
# Submitted via: CDex 1.50Beta7
#
DISCID=1d023c03
DTITLE=Gallon Drunk - You Should Be Ashamed-EP
DYEAR=1993
DGENRE=Blues
TTITLE0=You Should Be Ashamed
TTITLE1=Silver Wings
TTITLE2=The Amsterdam Run
EXTD=YEAR: 1993
EXTT0=
EXTT1=
EXTT2=
PLAYORDER=
